HIERARCHY
ROOT hip
{
  OFFSET 0.00112043 5.09927 -9.65472
  CHANNELS 6 Xposition Yposition Zposition Zrotation Xrotation Yrotation
  JOINT abdomen
  {
    OFFSET 0 -1.186 -1.5018
    CHANNELS 3 Zrotation Xrotation Yrotation
    JOINT abdomen2
    {
      OFFSET 0 9.964 0.2134
      CHANNELS 3 Zrotation Xrotation Yrotation
      JOINT chest
      {
        OFFSET 0 13.134 -3.2573
        CHANNELS 3 Zrotation Xrotation Yrotation
        JOINT neck
        {
          OFFSET 0 20.686 -1.6905
          CHANNELS 3 Zrotation Xrotation Yrotation
          JOINT head
          {
            OFFSET 0 7.238 -0.1237
            CHANNELS 3 Zrotation Xrotation Yrotation
            End Site
            {
              OFFSET 0 0 0
            }
          }
        }
        JOINT lCollar
        {
          OFFSET 1.7069 20.075 5.0056
          CHANNELS 3 Zrotation Xrotation Yrotation
          JOINT lShldr
          {
            OFFSET 13.6458 -0.047 -4.849
            CHANNELS 3 Zrotation Xrotation Yrotation
            JOINT lForeArm
            {
              OFFSET 28.3255 -0.9759 2.2888
              CHANNELS 3 Zrotation Xrotation Yrotation
              JOINT lHand
              {
                OFFSET 22.1583 -0.53 10.8316
                CHANNELS 3 Zrotation Xrotation Yrotation
                JOINT lThumb1
                {
                  OFFSET 0.786 0.112 2.5817
                  CHANNELS 3 Zrotation Xrotation Yrotation
                  JOINT lThumb2
                  {
                    OFFSET 0.3601 -0.878 4.2331
                    CHANNELS 3 Zrotation Xrotation Yrotation
                    JOINT lThumb2_End
                    {
                      OFFSET 1.8127 -1.216 2.2227
                      CHANNELS 3 Zrotation Xrotation Yrotation
                      End Site
                      {
                        OFFSET 0.0181 -0.0122 0.0222
                      }
                    }
                  }
                }
                JOINT lCarpal1
                {
                  OFFSET 0.9571 1.114 1.7695
                  CHANNELS 3 Zrotation Xrotation Yrotation
                  JOINT lIndex1
                  {
                    OFFSET 4.1246 0.487 4.1451
                    CHANNELS 3 Zrotation Xrotation Yrotation
                    JOINT lIndex2
                    {
                      OFFSET 3.4052 -1.454 2.7682
                      CHANNELS 3 Zrotation Xrotation Yrotation
                      JOINT lIndex2_End
                      {
                        OFFSET 1.4531 -1.795 1.2713
                        CHANNELS 3 Zrotation Xrotation Yrotation
                        End Site
                        {
                          OFFSET 0.0145 -0.0179 0.0127
                        }
                      }
                    }
                  }
                  JOINT lMid1
                  {
                    OFFSET 5.6954 0.21 2.1184
                    CHANNELS 3 Zrotation Xrotation Yrotation
                    JOINT lMid2
                    {
                      OFFSET 3.9766 -1.54 2.3863
                      CHANNELS 3 Zrotation Xrotation Yrotation
                      JOINT lMid2_End
                      {
                        OFFSET 1.4042 -1.926 1.125
                        CHANNELS 3 Zrotation Xrotation Yrotation
                        End Site
                        {
                          OFFSET 0.014 -0.0193 0.0113
                        }
                      }
                    }
                  }
                }
                JOINT lCarpal2
                {
                  OFFSET 2.0956 0.66 -0.3894
                  CHANNELS 3 Zrotation Xrotation Yrotation
                  JOINT lRing1
                  {
                    OFFSET 5.0395 -0.09 2.4971
                    CHANNELS 3 Zrotation Xrotation Yrotation
                    JOINT lRing2
                    {
                      OFFSET 3.7921 -1.552 1.4806
                      CHANNELS 3 Zrotation Xrotation Yrotation
                      JOINT lRing2_End
                      {
                        OFFSET 1.4655 -1.808 0.9609
                        CHANNELS 3 Zrotation Xrotation Yrotation
                        End Site
                        {
                          OFFSET 0.0147 -0.0181 0.0096
                        }
                      }
                    }
                  }
                  JOINT lPinky1
                  {
                    OFFSET 4.9141 -1.269 0.3591
                    CHANNELS 3 Zrotation Xrotation Yrotation
                    JOINT lPinky2
                    {
                      OFFSET 3.1477 -1.685 0.8462
                      CHANNELS 3 Zrotation Xrotation Yrotation
                      JOINT lPinky2_End
                      {
                        OFFSET 0.8055 -1.585 0.7955
                        CHANNELS 3 Zrotation Xrotation Yrotation
                        End Site
                        {
                          OFFSET 0.0081 -0.0158 0.008
                        }
                      }
                    }
                  }
                }
              }
            }
          }
        }
        JOINT rCollar
        {
          OFFSET -1.7069 20.075 5.0056
          CHANNELS 3 Zrotation Xrotation Yrotation
          JOINT rShldr
          {
            OFFSET -13.6458 -0.047 -4.849
            CHANNELS 3 Zrotation Xrotation Yrotation
            JOINT rForeArm
            {
              OFFSET -28.3255 -0.9759 2.2888
              CHANNELS 3 Zrotation Xrotation Yrotation
              JOINT rHand
              {
                OFFSET -22.1583 -0.53 10.8316
                CHANNELS 3 Zrotation Xrotation Yrotation
                JOINT rThumb1
                {
                  OFFSET -0.786 0.112 2.5817
                  CHANNELS 3 Zrotation Xrotation Yrotation
                  JOINT rThumb2
                  {
                    OFFSET -0.3601 -0.878 4.2331
                    CHANNELS 3 Zrotation Xrotation Yrotation
                    JOINT rThumb2_End
                    {
                      OFFSET -1.8127 -1.216 2.2227
                      CHANNELS 3 Zrotation Xrotation Yrotation
                      End Site
                      {
                        OFFSET -0.0181 -0.0122 0.0222
                      }
                    }
                  }
                }
                JOINT rCarpal1
                {
                  OFFSET -0.9571 1.114 1.7695
                  CHANNELS 3 Zrotation Xrotation Yrotation
                  JOINT rIndex1
                  {
                    OFFSET -4.1246 0.487 4.1451
                    CHANNELS 3 Zrotation Xrotation Yrotation
                    JOINT rIndex2
                    {
                      OFFSET -3.4052 -1.454 2.7682
                      CHANNELS 3 Zrotation Xrotation Yrotation
                      JOINT rIndex2_End
                      {
                        OFFSET -1.4531 -1.795 1.2713
                        CHANNELS 3 Zrotation Xrotation Yrotation
                        End Site
                        {
                          OFFSET -0.0145 -0.018 0.0127
                        }
                      }
                    }
                  }
                  JOINT rMid1
                  {
                    OFFSET -5.6954 0.21 2.1184
                    CHANNELS 3 Zrotation Xrotation Yrotation
                    JOINT rMid2
                    {
                      OFFSET -3.9766 -1.54 2.3863
                      CHANNELS 3 Zrotation Xrotation Yrotation
                      JOINT rMid2_End
                      {
                        OFFSET -1.4042 -1.926 1.125
                        CHANNELS 3 Zrotation Xrotation Yrotation
                        End Site
                        {
                          OFFSET -0.014 -0.0193 0.0113
                        }
                      }
                    }
                  }
                }
                JOINT rCarpal2
                {
                  OFFSET -2.0956 0.66 -0.3894
                  CHANNELS 3 Zrotation Xrotation Yrotation
                  JOINT rRing1
                  {
                    OFFSET -5.0395 -0.09 2.4971
                    CHANNELS 3 Zrotation Xrotation Yrotation
                    JOINT rRing2
                    {
                      OFFSET -3.7921 -1.552 1.4806
                      CHANNELS 3 Zrotation Xrotation Yrotation
                      JOINT rRing2_End
                      {
                        OFFSET -1.4655 -1.808 0.9609
                        CHANNELS 3 Zrotation Xrotation Yrotation
                        End Site
                        {
                          OFFSET -0.0147 -0.0181 0.0096
                        }
                      }
                    }
                  }
                  JOINT rPinky1
                  {
                    OFFSET -4.9141 -1.269 0.3592
                    CHANNELS 3 Zrotation Xrotation Yrotation
                    JOINT rPinky2
                    {
                      OFFSET -3.1477 -1.685 0.8462
                      CHANNELS 3 Zrotation Xrotation Yrotation
                      JOINT rPinky2_End
                      {
                        OFFSET -0.8055 -1.585 0.7955
                        CHANNELS 3 Zrotation Xrotation Yrotation
                        End Site
                        {
                          OFFSET -0.0081 -0.0158 0.008
                        }
                      }
                    }
                  }
                }
              }
            }
          }
        }
      }
    }
  }
  JOINT lThigh
  {
    OFFSET 8.367 -8.2066 0.5982
    CHANNELS 3 Zrotation Xrotation Yrotation
    JOINT lShin
    {
      OFFSET 2.1923 -43.463 -0.4932
      CHANNELS 3 Zrotation Xrotation Yrotation
      JOINT lFoot
      {
        OFFSET 0.7333 -45.8593 -2.6451
        CHANNELS 3 Zrotation Xrotation Yrotation
        End Site
        {
          OFFSET 2.6618 -4.2699 12.3931
        }
      }
    }
  }
  JOINT rThigh
  {
    OFFSET -8.367 -8.2066 0.5982
    CHANNELS 3 Zrotation Xrotation Yrotation
    JOINT rShin
    {
      OFFSET -2.1923 -43.463 -0.4931
      CHANNELS 3 Zrotation Xrotation Yrotation
      JOINT rFoot
      {
        OFFSET -0.7333 -45.8593 -2.6451
        CHANNELS 3 Zrotation Xrotation Yrotation
        End Site
        {
          OFFSET -2.6618 -4.2699 12.3931
        }
      }
    }
  }
}
MOTION
Frames:	4
Frame Time:	0.0333333
42.0896 -2.89568 41.4457 179.997 58.9947 3.2456e-011 -0.0319501 9.85923 -0.0819833 -0.0504769 19.7185 -0.161976 -0.0504769 19.7185 -0.161975 6.00116e-006 13.9963 -1.76395e-006 1.61311e-008 0.134631 -8.46918e-009 -15.4535 -6.91556 -1.32957 -17.466 55.2331 5.94584 13.2787 34.4709 -6.04026 3.0056 1.38876 2.0462 -8.2773e-007 -1.85821e-007 -7.48159e-008 1.19271e-015 -7.95139e-016 -3.18055e-015 -8.2773e-007 -1.85821e-007 -7.48159e-008 3.97569e-016 -3.18055e-015 6.36111e-015 -8.2773e-007 -1.85821e-007 -7.48159e-008 -1.98785e-015 3.18055e-015 -9.54166e-015 -8.2773e-007 -1.85821e-007 -7.48159e-008 -8.2773e-007 -1.85821e-007 -7.48159e-008 -1.98785e-015 3.18055e-015 -9.54166e-015 -8.2773e-007 -1.85821e-007 -7.48159e-008 3.97569e-016 -3.18055e-015 6.36111e-015 -8.2773e-007 -1.85821e-007 -7.48159e-008 -1.98785e-015 3.18055e-015 -9.54166e-015 -8.2773e-007 -1.85821e-007 -7.48159e-008 -8.2773e-007 -1.85821e-007 -7.48159e-008 -1.98785e-015 3.18055e-015 -9.54166e-015 -8.2773e-007 -1.85821e-007 -7.48159e-008 15.2498 -6.94597 1.4087 17.9323 55.2672 -5.66363 -14.9945 34.2835 5.91847 -2.99468 1.42624 -1.95233 -2.38542e-015 2.38542e-015 -9.54166e-015 -8.28679e-007 1.81424e-007 -6.9951e-008 -8.28679e-007 1.81424e-007 -6.9951e-008 -3.18055e-015 0 -9.54166e-015 1.76556e-031 1.59028e-015 -6.36111e-015 -8.28679e-007 1.81424e-007 -6.9951e-008 -8.28679e-007 1.81424e-007 -6.9951e-008 1.76556e-031 1.59028e-015 -6.36111e-015 -8.28679e-007 1.81424e-007 -6.9951e-008 -8.28679e-007 1.81424e-007 -6.9951e-008 -3.18055e-015 0 -9.54166e-015 1.76556e-031 1.59028e-015 -6.36111e-015 -8.28679e-007 1.81424e-007 -6.9951e-008 -8.28679e-007 1.81424e-007 -6.9951e-008 1.76556e-031 1.59028e-015 -6.36111e-015 -8.28679e-007 1.81424e-007 -6.9951e-008 -8.28679e-007 1.81424e-007 -6.9951e-008 48.9887 -72.4736 85.9302 127.865 43.4724 -118.517 25.8996 -0.502003 8.12037 -31.6663 -67.7409 -68.9991 -124.897 40.0631 136.281 -3.46557 1.91785 -4.51108 
42.0952 -2.88423 41.5033 179.997 58.9947 3.2456e-011 -0.0315364 9.73551 -0.0821989 -0.0497611 19.471 -0.162472 -0.0497611 19.4709 -0.162472 8.29708e-009 13.997 2.2651e-007 -2.08728e-008 0.134637 1.1475e-008 -16.389 -6.78161 -1.25523 -16.7201 55.2401 5.92255 13.0518 34.5701 -5.52877 3.11032 1.78335 1.77173 -3.97569e-016 -3.97569e-015 -0 2.38542e-015 -3.18055e-015 -0 -1.65544e-006 -3.71826e-007 -1.49594e-007 3.97569e-016 -3.97569e-015 -3.18055e-015 -3.97569e-016 -7.95139e-016 9.54166e-015 7.95139e-016 -1.59028e-015 3.18055e-015 -1.65544e-006 -3.71826e-007 -1.49594e-007 -3.97569e-016 -7.95139e-016 9.54166e-015 7.95139e-016 -1.59028e-015 3.18055e-015 -1.65544e-006 -3.71826e-007 -1.49594e-007 3.97569e-016 -3.97569e-015 -3.18055e-015 -3.97569e-016 -7.95139e-016 9.54166e-015 7.95139e-016 -1.59028e-015 3.18055e-015 -1.65544e-006 -3.71826e-007 -1.49594e-007 -3.97569e-016 -7.95139e-016 9.54166e-015 7.95139e-016 -1.59028e-015 3.18055e-015 -1.65544e-006 -3.71826e-007 -1.49594e-007 16.1747 -6.81305 1.33732 17.19 55.2763 -5.64454 -14.7748 34.3925 5.41668 -3.10078 1.8141 -1.66693 -8.28667e-007 1.81524e-007 -6.99298e-008 -8.28667e-007 1.81524e-007 -6.99298e-008 -1.81524e-007 -8.28667e-007 -6.63249e-008 0 4.77083e-015 -0 -8.28667e-007 1.81524e-007 -6.99298e-008 -8.28667e-007 1.81524e-007 -6.99298e-008 -1.81524e-007 -8.28667e-007 -6.63249e-008 -8.28667e-007 1.81524e-007 -6.99298e-008 -8.28667e-007 1.81524e-007 -6.99298e-008 -1.81524e-007 -8.28667e-007 -6.63249e-008 0 4.77083e-015 -0 -8.28667e-007 1.81524e-007 -6.99298e-008 -8.28667e-007 1.81524e-007 -6.99298e-008 -1.81524e-007 -8.28667e-007 -6.63249e-008 -8.28667e-007 1.81524e-007 -6.99298e-008 -8.28667e-007 1.81524e-007 -6.99298e-008 -1.81524e-007 -8.28667e-007 -6.63249e-008 48.472 -72.2876 85.3772 127.641 43.5832 -118.381 25.8944 -0.521295 8.11212 -31.2831 -67.5295 -68.6654 -124.609 40.1884 136.128 -3.48368 1.93087 -4.5915 
42.1006 -2.87278 41.561 179.997 58.9947 3.2456e-011 -0.0311238 9.61176 -0.0824114 -0.0490499 19.2235 -0.16296 -0.0490499 19.2236 -0.162961 6.03103e-006 13.9963 -1.42416e-006 -6.16854e-008 0.134641 5.23161e-008 -17.3241 -6.64894 -1.17876 -15.9742 55.247 5.89913 12.8236 34.6677 -5.01621 3.21696 2.17739 1.49645 -5.28498e-007 -4.27366e-007 -3.3856e-006 -1.25126e-007 5.45083e-007 1.97527e-006 1.066e-006 2.27309e-007 -5.27161e-006 1.98785e-015 0 -0 -5.28498e-007 -4.27366e-007 -3.3856e-006 -1.25126e-007 5.45083e-007 1.97527e-006 1.066e-006 2.27309e-007 -5.27161e-006 -5.28498e-007 -4.27366e-007 -3.3856e-006 -1.25126e-007 5.45083e-007 1.97527e-006 1.066e-006 2.27309e-007 -5.27161e-006 1.98785e-015 0 -0 -5.28498e-007 -4.27366e-007 -3.3856e-006 -1.25126e-007 5.45083e-007 1.97527e-006 1.066e-006 2.27309e-007 -5.27161e-006 -5.28498e-007 -4.27366e-007 -3.3856e-006 -1.25126e-007 5.45083e-007 1.97527e-006 1.066e-006 2.27309e-007 -5.27161e-006 17.0992 -6.68133 1.26382 16.4476 55.2853 -5.62526 -14.5537 34.5 4.91379 -3.20884 2.20139 -1.38078 8.28648e-007 -1.81648e-007 6.99304e-008 8.28648e-007 -1.81648e-007 6.99304e-008 8.28648e-007 -1.81648e-007 6.99304e-008 -4.41391e-032 -7.95139e-016 -3.18055e-015 8.28648e-007 -1.81648e-007 6.99304e-008 8.28648e-007 -1.81648e-007 6.99304e-008 8.28648e-007 -1.81648e-007 6.99304e-008 8.28648e-007 -1.81648e-007 6.99304e-008 8.28648e-007 -1.81648e-007 6.99304e-008 8.28648e-007 -1.81648e-007 6.99304e-008 -4.41391e-032 -7.95139e-016 -3.18055e-015 8.28648e-007 -1.81648e-007 6.99304e-008 8.28648e-007 -1.81648e-007 6.99304e-008 8.28648e-007 -1.81648e-007 6.99304e-008 8.28648e-007 -1.81648e-007 6.99304e-008 8.28648e-007 -1.81648e-007 6.99304e-008 8.28648e-007 -1.81648e-007 6.99304e-008 47.9666 -72.1003 84.836 127.416 43.6934 -118.244 25.8893 -0.540455 8.10399 -30.9176 -67.3179 -68.3469 -124.321 40.3111 135.976 -3.50164 1.9442 -4.67207 
42.106 -2.86131 41.6185 179.997 58.9947 3.2456e-011 -0.0307122 9.48816 -0.0826208 -0.048343 18.9763 -0.163441 -0.0483431 18.9763 -0.163441 5.14144e-006 13.9964 -1.69427e-006 6.89477e-008 0.134632 -1.86858e-007 -18.2586 -6.51759 -1.10018 -15.2284 55.2536 5.87553 12.594 34.7635 -4.5026 3.3255 2.57087 1.22046 1.13142e-007 5.8672e-007 -3.37093e-006 3.97569e-016 -2.38542e-015 -0 2.9931e-007 -2.40954e-007 -3.31069e-006 1.19271e-015 -7.95139e-016 -0 1.13142e-007 5.8672e-007 -3.37093e-006 -0 -7.95139e-016 -0 2.9931e-007 -2.40954e-007 -3.31069e-006 1.13142e-007 5.8672e-007 -3.37093e-006 -0 -7.95139e-016 -0 2.9931e-007 -2.40954e-007 -3.31069e-006 1.19271e-015 -7.95139e-016 -0 1.13142e-007 5.8672e-007 -3.37093e-006 -0 -7.95139e-016 -0 2.9931e-007 -2.40954e-007 -3.31069e-006 1.13142e-007 5.8672e-007 -3.37093e-006 -0 -7.95139e-016 -0 2.9931e-007 -2.40954e-007 -3.31069e-006 18.0231 -6.55091 1.18826 15.7053 55.2942 -5.60576 -14.3312 34.6058 4.40978 -3.31884 2.58808 -1.09383 8.42435e-007 -1.04401e-007 -9.86304e-007 7.80851e-007 1.58429e-006 3.11478e-006 3.13342e-007 4.55229e-007 4.68064e-007 3.97569e-016 -2.38542e-015 -3.18055e-015 8.42435e-007 -1.04401e-007 -9.86304e-007 7.80851e-007 1.58429e-006 3.11478e-006 3.13342e-007 4.55229e-007 4.68064e-007 8.42435e-007 -1.04401e-007 -9.86304e-007 7.80851e-007 1.58429e-006 3.11478e-006 3.13342e-007 4.55229e-007 4.68064e-007 3.97569e-016 -2.38542e-015 -3.18055e-015 8.42435e-007 -1.04401e-007 -9.86304e-007 7.80851e-007 1.58429e-006 3.11478e-006 3.13342e-007 4.55229e-007 4.68064e-007 8.42435e-007 -1.04401e-007 -9.86304e-007 7.80851e-007 1.58429e-006 3.11478e-006 3.13342e-007 4.55229e-007 4.68064e-007 47.4723 -71.9117 84.3061 127.19 43.8031 -118.106 25.8842 -0.559415 8.09587 -30.5638 -67.1058 -68.0393 -124.032 40.4322 135.826 -3.51945 1.95773 -4.7528 
